<svg xmlns="http://www.w3.org/2000/svg" xmlns:xlink="http://www.w3.org/1999/xlink" version="1.1" id="Layer_1" x="0px" y="0px" width="175.199px" height="174.87px" viewBox="0 0 175.199 174.87" enable-background="new 0 0 175.199 174.87" xml:space="preserve"><style>.style0{stop-color:	#E59E12;}.style1{stop-color:	#E59F14;}.style10{stop-color:	#E9C773;}.style11{fill:	url(#SVGID_4_);clip-path:	url(#SVGID_2_);clip-rule:	evenodd;fill-rule:	evenodd;}.style2{stop-color:	#E5A21B;}.style3{stop-color:	#E6A728;}.style4{stop-color:	#E7AF3A;}.style5{stop-color:	#E8B951;}.style6{stop-color:	#E9C56D;}.style7{stop-color:	#E9C874;}.style8{fill:	url(#SVGID_3_);clip-path:	url(#SVGID_2_);clip-rule:	evenodd;fill-rule:	evenodd;}.style9{stop-color:	#E5BA5F;}</style><g><defs><path id="SVGID_1_" d="M88.041 0c1.235 2.2 2.5 4.5 4 7.287c2.406-2.173 4.28-3.865 6.468-5.84 c1.354 1.9 2.6 3.7 4 5.725c1.85-1.22 3.452-2.277 5.518-3.638c1.218 2.2 2.3 4.2 3.7 6.7 c2.252-1.133 4.522-2.276 7.228-3.639c0.838 2.2 1.6 4.2 2.5 6.696c2.104-0.837 4.032-1.605 6.286-2.504 c0.646 2.6 1.2 4.9 1.9 7.646c2.486-0.733 4.743-1.399 7.44-2.195c0.493 2.4 1 4.7 1.5 7.2 c2.009-0.234 3.922-0.457 6.303-0.736c0.143 2.5 0.3 4.8 0.4 7.402c2.504 0 4.8 0 7.7 0 c-0.222 2.384-0.435 4.659-0.68 7.295c2.013 0.4 3.9 0.7 6.3 1.182c-0.368 2.161-0.723 4.236-1.182 6.9 c2.468 0.6 4.9 1.2 7.7 1.821c-0.865 2.255-1.715 4.468-2.718 7.082c2.047 0.9 4 1.7 6.2 2.7 c-1.13 2.126-2.142 4.029-3.31 6.227c2.447 1.2 4.8 2.4 7.4 3.658c-1.621 2.157-3.039 4.042-4.752 6.3 c1.89 1.3 3.6 2.5 5.7 4.05c-1.603 1.803-2.996 3.371-4.645 5.225c2.103 1.7 3.9 3.3 6.1 5.1 c-2.028 1.784-3.806 3.348-6.004 5.281c1.34 1.6 2.7 3.2 4.4 5.309c-1.669 1.252-3.337 2.501-5.297 4 c1.437 2.1 2.9 4.2 4.4 6.466c-2.536 1.248-4.89 2.406-7.457 3.67c1.177 2.1 2.2 4 3.5 6.3 c-2.109 0.842-3.878 1.547-6.103 2.435c0.806 2.3 1.6 4.5 2.5 7.134c-2.627 0.617-5.091 1.195-7.853 1.8 c0.492 2.3 0.9 4.4 1.5 6.89c-2.042 0.421-3.927 0.811-6.233 1.285c0.222 2.1 0.4 4.2 0.7 6.9 c-2.615 0.135-5.145 0.267-8.058 0.419c0 2.4 0 4.8 0 7.604c-2.317-0.334-4.179-0.603-6.455-0.932 c-0.367 2.3-0.705 4.417-1.141 7.145c-2.597-0.663-5.041-1.287-7.831-2c-0.704 2.479-1.41 4.971-2.175 7.7 c-1.963-0.815-3.765-1.564-5.889-2.446c-0.866 2.175-1.665 4.181-2.617 6.573c-2.309-1.232-4.572-2.442-7.301-3.898 c-1.152 2.236-2.228 4.322-3.509 6.812c-1.862-1.041-3.671-2.051-5.77-3.223c-1.218 1.741-2.321 3.318-3.758 5.4 c-2.001-1.791-3.888-3.481-6.082-5.445c-1.726 1.95-3.415 3.86-5.342 6.038c-1.471-1.573-2.783-2.975-4.434-4.74 c-1.63 1.329-3.265 2.661-5.146 4.196c-1.486-2.126-2.965-4.242-4.679-6.692c-2.148 1.591-4.046 2.996-6.396 4.7 c-1.161-1.967-2.221-3.762-3.457-5.857c-1.872 0.854-3.776 1.722-5.981 2.728c-0.917-2.492-1.73-4.708-2.725-7.413 c-2.568 1.114-4.897 2.123-7.505 3.252c-0.668-2.312-1.272-4.404-2.026-7.01c-1.918 0.484-3.749 0.947-6.038 1.5 c-0.351-2.469-0.676-4.762-1.076-7.586c-2.768 0.352-5.297 0.673-8.157 1.036c-0.113-2.278-0.221-4.44-0.354-7.155 c-2.028-0.144-4.092-0.288-6.456-0.455c0.399-2.422 0.748-4.533 1.175-7.125c-2.864-0.42-5.38-0.79-8.179-1.201 c0.523-2.404 0.981-4.508 1.514-6.954c-2.026-0.526-3.89-1.013-6.205-1.615c0.756-2.22 1.495-4.39 2.353-6.911 c-2.387-0.881-4.619-1.703-7.526-2.774c1.089-2.13 2.127-4.163 3.396-6.646c-1.756-1.053-3.562-2.137-5.758-3.451 c1.214-1.749 2.414-3.475 4.106-5.912c-2.631-1.396-5.205-2.765-7.779-4.131c0-0.444 0-0.89 0-1.334 c2.127-1.359 4.255-2.721 7.887-5.043c-3.08-1.654-5.172-2.779-7.328-3.938c2.625-2.351 4.166-3.73 5.746-5.146 c-1.978-2.147-3.573-3.879-5.376-5.834c2.457-1.713 4.516-3.147 6.575-4.584c-1.456-2.1-2.651-3.822-3.877-5.588 c2.213-1.347 4.043-2.461 5.85-3.56c-1.259-2.44-2.343-4.542-3.449-6.686c2.772-1.045 5.136-1.936 7.537-2.84 c-0.987-2.572-1.766-4.596-2.553-6.645c2.309-0.651 4.316-1.217 6.447-1.817c-0.587-2.571-1.059-4.638-1.597-6.995 c2.967-0.54 5.456-0.993 7.916-1.441c-0.303-2.538-0.552-4.628-0.849-7.117c2.453 0 4.3 0 6.4 0 c0.213-2.634 0.398-4.938 0.603-7.462c2.797 0.4 5.1 0.8 7.8 1.196c0.4-2.641 0.755-4.98 1.138-7.506 c2.151 0.5 4 1 6.1 1.476c0.808-2.492 1.533-4.728 2.274-7.016c2.549 1 4.7 1.9 7.3 3 c0.979-2.48 1.835-4.649 2.779-7.041c2.225 1 4.1 1.9 6 2.697c1.234-2.142 2.28-3.955 3.464-6.008 c2.345 1.7 4.2 3.1 6.3 4.676c1.701-2.374 3.195-4.459 4.685-6.537c1.946 1.6 3.6 2.9 5.6 4.6 c1.338-2.44 2.368-4.316 3.397-6.192C87.151 0 87.6 0 88 0z"/></defs><clipPath id="SVGID_2_"><use xlink:href="#SVGID_1_" overflow="visible"/></clipPath><linearGradient id="SVGID_3_" gradientUnits="userSpaceOnUse" x1="87.6" y1="4" x2="87.6" y2="182"><stop offset="0" class="style0"/><stop offset="0.3932" class="style1"/><stop offset="0.5662" class="style2"/><stop offset="0.696" class="style3"/><stop offset="0.8042" class="style4"/><stop offset="0.899" class="style5"/><stop offset="0.9831" class="style6"/><stop offset="1" class="style7"/></linearGradient><rect x="-30.1" y="4" width="235.3" height="178" class="style8"/><linearGradient id="SVGID_4_" gradientUnits="userSpaceOnUse" x1="104" y1="-399" x2="104" y2="102.2"><stop offset="0.8592" class="style9"/><stop offset="0.9929" class="style10"/><stop offset="1" class="style7"/></linearGradient><circle cx="104" cy="-148.4" r="250.6" class="style11"/></g></svg>
