<svg xmlns="http://www.w3.org/2000/svg" version="1.1" x="0" y="0" width="707.33" height="278.67" viewBox="0 0 707.33 278.67" enable-background="new 0 0 707.333 278.667" xml:space="preserve"><rect fill="#FFFFFF" width="707.33" height="278.67"/><path fill="#302562" d="M245.52 182.13c0 3.73-1.28 6.68-3.83 8.83-2.56 2.16-6.08 3.23-10.56 3.23h-8.18V170.01h8.18c4.48 0 8 1.08 10.56 3.25C244.24 175.41 245.52 178.37 245.52 182.13zM125.68 185.33c-1.31-0.84-3.36-1.26-6.15-1.26h-6.06v10.31h6.89c2.52 0 4.37-0.42 5.53-1.24 1.18-0.82 1.76-2.08 1.76-3.83C127.64 187.51 126.98 186.19 125.68 185.33zM432.8 174.68c0-1.8-0.56-3.11-1.7-3.93-1.14-0.8-2.98-1.24-5.53-1.24h-4.29v10.4h4.29c2.44 0 4.24-0.44 5.43-1.29C432.2 177.75 432.8 176.45 432.8 174.68zM593.73 163.75c-0.51 0-0.86 0.04-1.14 0.07v3.04h1.14c1.31 0 2.41-0.43 2.41-1.53C596.14 164.53 595.51 163.75 593.73 163.75zM699.34 150.6v67.34H11.17v-67.34H699.34zM133.16 189.67c0-2.17-0.72-3.99-2.16-5.49-1.45-1.51-3.5-2.55-6.15-3.11 1.83-0.62 3.16-1.5 4.06-2.64 0.88-1.13 1.31-2.55 1.31-4.27 0-2.77-0.97-4.9-2.93-6.41-1.96-1.5-4.74-2.25-8.36-2.25h-10.6v33.24h12.57c3.76 0 6.75-0.82 8.95-2.48C132.06 194.61 133.16 192.42 133.16 189.67zM170.11 165.49h-5.19v21.21c0 2.43-0.96 4.4-2.87 5.88-1.9 1.49-4.44 2.25-7.57 2.25-1.87 0-3.52-0.29-4.99-0.86-1.46-0.56-2.73-1.43-3.8-2.59-0.59-0.66-1.01-1.43-1.25-2.3-0.25-0.89-0.38-2.39-0.38-4.52v-19.07h-5.18v19.28c0 2.61 0.18 4.55 0.58 5.83 0.4 1.26 1.05 2.41 1.98 3.44 1.52 1.72 3.39 3.03 5.6 3.92 2.22 0.89 4.7 1.34 7.44 1.34 4.65 0 8.41-1.15 11.3-3.46 2.88-2.3 4.33-5.31 4.33-9V165.49zM183.06 165.49h-5.18v33.24h5.18V165.49zM213.55 194.42H196.3v-28.93h-5.13v33.24h22.37V194.42zM251.05 182.08c0-2.85-0.67-5.49-2-7.88-1.35-2.38-3.24-4.33-5.69-5.85-1.61-1-3.37-1.73-5.3-2.19-1.94-0.46-4.23-0.68-6.92-0.68h-13.32v33.24h13.32c2.66 0 4.97-0.24 6.92-0.7 1.97-0.45 3.73-1.18 5.3-2.18 2.44-1.5 4.32-3.45 5.68-5.86C250.37 187.6 251.05 184.95 251.05 182.08zM262.53 165.49h-5.18v33.24h5.18V165.49zM304.02 165.49h-5.18v25.79l-23.84-25.79h-4.5v33.24h5.14V172.9l23.78 25.82h4.61V165.49zM342.68 182.41h-12.17v4.45h6.84v6.43c-1.33 0.5-2.62 0.88-3.86 1.12-1.24 0.26-2.49 0.38-3.73 0.38-4.14 0-7.56-1.2-10.3-3.62-2.73-2.41-4.1-5.42-4.1-9.02 0-3.65 1.39-6.69 4.15-9.09 2.77-2.42 6.27-3.62 10.51-3.62 1.9 0 3.86 0.27 5.88 0.82 2.03 0.55 4.18 1.4 6.49 2.53v-5.16c-2.12-0.9-4.21-1.56-6.24-2.01-2.04-0.44-4.06-0.67-6.08-0.67-2.98 0-5.66 0.43-8.08 1.24-2.39 0.82-4.56 2.1-6.47 3.78-1.82 1.57-3.22 3.4-4.2 5.5-0.99 2.1-1.48 4.28-1.48 6.5 0 2.99 0.75 5.72 2.25 8.24 1.49 2.51 3.58 4.57 6.29 6.19 1.6 0.97 3.37 1.69 5.28 2.19 1.92 0.48 3.97 0.74 6.14 0.74 1.94 0 3.98-0.25 6.1-0.69 2.14-0.47 4.4-1.18 6.78-2.13V182.41zM381.49 190.53c0-2.24-0.53-4.1-1.6-5.62-1.07-1.53-3.34-3.26-6.81-5.24-0.16-0.1-0.43-0.23-0.78-0.42-4.27-2.44-6.4-4.48-6.4-6.11 0-1.16 0.51-2.1 1.55-2.84 1.03-0.72 2.35-1.1 3.97-1.1 1.36 0 2.7 0.27 4.06 0.79 1.35 0.52 2.81 1.37 4.4 2.53v-5.38c-1.38-0.77-2.75-1.34-4.11-1.72-1.36-0.36-2.73-0.56-4.14-0.56-3.15 0-5.71 0.83-7.72 2.49-1.99 1.65-2.99 3.76-2.99 6.35 0 1.83 0.52 3.42 1.57 4.75 1.05 1.34 3.61 3.21 7.71 5.63 2.64 1.55 4.32 2.72 5.01 3.54 0.69 0.82 1.05 1.76 1.05 2.84 0 1.32-0.52 2.35-1.55 3.13-1.03 0.77-2.47 1.15-4.26 1.15-1.69 0-3.28-0.37-4.77-1.14-1.5-0.77-3.07-2.01-4.72-3.74v6.28c1.46 1.09 2.97 1.91 4.55 2.42 1.57 0.49 3.33 0.75 5.3 0.75 3.13 0 5.68-0.83 7.68-2.48C380.48 195.15 381.49 193.07 381.49 190.53zM409.64 194.42h-17.21v-10.35h16.19v-4.28h-16.19v-10.09h16.66v-4.21h-21.79v33.24h22.34V194.42zM443.94 198.72l-8.82-12.14c-0.85-1.19-1.54-2.01-2.06-2.51-0.53-0.51-1.12-0.91-1.72-1.2 2.34-0.66 4.07-1.67 5.15-3 1.09-1.34 1.63-3.09 1.63-5.29 0-2.89-0.98-5.12-2.96-6.72-2-1.58-4.81-2.37-8.48-2.37h-10.65v33.24h5.24v-14.84h1.55c1.6 0 2.96 0.36 4.12 1.09 1.15 0.73 2.65 2.4 4.5 5.03l6.24 8.72H443.94zM474.77 165.49h-5.33l-11.54 23.71-11.31-23.71h-5.43l15.98 33.45h1.36L474.77 165.49zM482.95 165.49h-5.19v33.24h5.19V165.49zM521.75 190.84c-2.22 1.32-4.42 2.31-6.58 2.96-2.17 0.66-4.3 0.98-6.4 0.98-4.12 0-7.54-1.2-10.26-3.62-2.73-2.41-4.08-5.42-4.08-9.02 0-3.65 1.37-6.69 4.15-9.09 2.77-2.42 6.26-3.62 10.49-3.62 1.9 0 3.87 0.27 5.9 0.82 2.02 0.55 4.18 1.4 6.48 2.53v-5.16c-2.19-0.93-4.3-1.59-6.29-2.02-2.02-0.43-4.05-0.65-6.09-0.65-2.91 0-5.57 0.43-7.98 1.25-2.39 0.84-4.56 2.09-6.51 3.77-1.81 1.57-3.21 3.4-4.19 5.5-1 2.1-1.49 4.28-1.49 6.5 0 2.95 0.76 5.67 2.25 8.18 1.5 2.51 3.6 4.58 6.28 6.2 1.68 0.97 3.45 1.71 5.33 2.21 1.91 0.49 3.86 0.75 5.94 0.75 2.17 0 4.35-0.26 6.56-0.79 2.21-0.53 4.36-1.3 6.49-2.31V190.84zM550.1 194.42h-17.22v-10.35h16.21v-4.28h-16.21v-10.09h16.69v-4.21h-21.79v33.24h22.32V194.42zM575.21 190.53c0-2.24-0.52-4.1-1.59-5.62-1.08-1.53-3.34-3.26-6.83-5.24-0.15-0.1-0.41-0.23-0.75-0.42-4.29-2.44-6.41-4.48-6.41-6.11 0-1.16 0.52-2.1 1.55-2.84 1.03-0.72 2.35-1.1 3.97-1.1 1.36 0 2.7 0.27 4.04 0.79 1.35 0.52 2.83 1.37 4.42 2.53v-5.38c-1.39-0.77-2.74-1.34-4.12-1.72-1.34-0.36-2.73-0.56-4.12-0.56-3.14 0-5.72 0.83-7.71 2.49-2.01 1.65-3.01 3.76-3.01 6.35 0 1.83 0.52 3.42 1.57 4.75 1.06 1.34 3.62 3.21 7.71 5.63 2.65 1.55 4.33 2.72 5.03 3.54 0.7 0.82 1.05 1.76 1.05 2.84 0 1.32-0.52 2.35-1.58 3.13-1.02 0.77-2.43 1.15-4.23 1.15-1.7 0-3.3-0.37-4.78-1.14-1.49-0.77-3.07-2.01-4.71-3.74v6.28c1.44 1.09 2.96 1.91 4.54 2.42 1.55 0.49 3.34 0.75 5.29 0.75 3.12 0 5.69-0.83 7.69-2.48C574.21 195.15 575.21 193.07 575.21 190.53zM603.01 167.15c0-4.47-3.86-8.04-8.72-8.04h-0.04c-4.86 0-8.81 3.57-8.81 8.04 0 4.53 3.95 8.07 8.81 8.07C599.15 175.22 603.01 171.68 603.01 167.15zM601.39 167.18c0 3.79-3.16 6.83-7.1 6.8-3.96 0-7.15-3-7.15-6.82 0-3.76 3.19-6.8 7.11-6.8h0.04C598.24 160.35 601.39 163.39 601.39 167.18zM598.16 171.83c-0.16-0.28-0.4-0.82-0.63-2.22-0.19-1.32-0.79-2.04-1.66-2.18v-0.07c1.07-0.29 1.94-1 1.94-2.18 0-0.85-0.31-1.46-0.91-1.86-0.59-0.39-1.58-0.68-3.09-0.68-1.18 0-1.97 0.1-2.8 0.21v8.97h1.58v-3.86h1.1c1.27 0 1.9 0.42 2.14 1.57 0.2 1.18 0.44 2.01 0.67 2.29H598.16zM122.84 178.42c1.28-0.87 1.92-2.21 1.92-4 0-1.62-0.51-2.81-1.52-3.56-1.01-0.73-2.62-1.11-4.84-1.11h-4.94v9.99h3.5C119.6 179.73 121.56 179.28 122.84 178.42z"/><path fill="#B42C26" d="M11.17 259.82h687.99v8.76H11.17V259.82zM699.53 10.71v129.34H11.17V10.71H699.53zM211.19 33.75c0-3.48-1.93-5.47-5.28-5.47-3.35 0-5.28 1.99-5.28 5.47v37.43h-98.41V33.75c0-3.48-1.92-5.47-5.28-5.47-3.35 0-5.28 1.99-5.28 5.47v85.78c0 3.47 1.92 5.46 5.28 5.46 3.35 0 5.28-1.99 5.28-5.46V82.12h98.41v37.41c0 3.47 1.92 5.46 5.28 5.46 3.36 0 5.28-1.99 5.28-5.46V33.75zM231 71.18V40.26h103.68c3.36 0 5.29-1.94 5.29-5.33 0-3.39-1.93-5.34-5.29-5.34H220.44v93.9h114.24c3.36 0 5.29-1.95 5.29-5.35 0-3.39-1.93-5.34-5.29-5.34H231V81.88h103.68c3.36 0 5.29-1.95 5.29-5.35 0-3.4-1.93-5.35-5.29-5.35H231zM362.17 118.02l0.02-82.77c0-3.43-1.92-5.4-5.27-5.4-3.27 0-5.15 1.97-5.15 5.4v84.21c0 3.34 1.88 5.26 5.15 5.26 3.35 0 5.27-1.92 5.27-5.25L362.17 118.02zM491.35 34.99c0-3.44-1.92-5.41-5.28-5.41H377.1c-3.36 0-5.29 1.97-5.29 5.41 0 3.44 1.93 5.41 5.29 5.41h49.21v79.31c0 3.44 1.92 5.42 5.28 5.42s5.28-1.97 5.28-5.42V40.4h49.21C489.43 40.4 491.35 38.43 491.35 34.99zM510.71 52.96c0-4.18 4.43-7.74 13.16-10.59 9.25-3.02 21.38-4.56 36.05-4.56 13.42 0 25.19 2.51 34.96 7.47 9.46 4.79 14.26 10.45 14.26 16.81 0 3.35 1.92 5.27 5.28 5.27 3.35 0 5.28-1.92 5.28-5.27 0-9.87-5.93-18.25-17.63-24.91-11.43-6.5-25.6-9.79-42.13-9.79-16.33 0-29.88 1.81-40.25 5.39-12.94 4.47-19.51 11.26-19.51 20.18 0 9.27 5.87 16.06 17.47 20.18 5.34 1.84 17.15 4.15 35.13 6.88l6.42 0.95 6.95 0.95c16.44 2.25 27.48 4.34 32.82 6.2 6.85 2.34 10.18 5.72 10.18 10.33 0 4.18-4.43 7.75-13.16 10.59-9.26 3.03-21.39 4.57-36.06 4.57-13.4 0-25.16-2.51-34.95-7.47-9.45-4.79-14.25-10.45-14.25-16.81 0-3.35-1.92-5.28-5.28-5.28-3.35 0-5.28 1.92-5.28 5.28 0 9.87 5.93 18.26 17.63 24.91 11.43 6.5 25.6 9.8 42.13 9.8 16.35 0 29.9-1.81 40.26-5.39 12.94-4.47 19.51-11.26 19.51-20.18 0-9.27-5.64-16.01-16.76-20.04-6.13-2.23-17.68-4.49-35.3-6.89l-13.48-1.9c-16.27-2.34-27.18-4.43-32.42-6.21C514.31 60.9 510.71 57.48 510.71 52.96z"/><path fill="#2F2562" d="M48.4 248.99C47.42 249.48 45.45 250 42.94 250c-5.84 0-10.22-3.71-10.22-10.49 0-6.48 4.39-10.86 10.8-10.86 2.58 0 4.21 0.55 4.91 0.92l-0.64 2.18c-1.02-0.5-2.46-0.87-4.17-0.87-4.85 0-8.07 3.1-8.07 8.54 0 5.06 2.92 8.32 7.95 8.32 1.63 0 3.28-0.34 4.36-0.86L48.4 248.99zM53.11 249.66h2.67V228.98h-2.67V249.66zM64.33 249.67v-8.84c0-3.44-0.06-5.92-0.21-8.53l0.09-0.03c1.04 2.24 2.42 4.6 3.87 6.9l6.56 10.5h2.7V228.98h-2.52v8.65c0 3.22 0.06 5.74 0.31 8.51l-0.06 0.03c-0.98-2.11-2.18-4.3-3.71-6.72l-6.63-10.47h-2.91v20.69H64.33zM97.28 246.87c-1.08 0.52-2.73 0.86-4.36 0.86-5.03 0-7.95-3.25-7.95-8.32 0-5.44 3.23-8.54 8.07-8.54 1.72 0 3.16 0.37 4.17 0.87l0.64-2.18c-0.7-0.37-2.33-0.92-4.91-0.92-6.42 0-10.8 4.39-10.8 10.87 0 6.78 4.39 10.49 10.22 10.49 2.51 0 4.48-0.52 5.46-1.01L97.28 246.87zM102.54 249.66h2.67V228.98h-2.67V249.66zM113.76 249.67v-8.84c0-3.44-0.06-5.92-0.21-8.53l0.09-0.03c1.05 2.24 2.42 4.6 3.87 6.9l6.57 10.5h2.7V228.98h-2.52v8.65c0 3.22 0.07 5.74 0.31 8.51l-0.06 0.03c-0.98-2.11-2.18-4.3-3.72-6.72l-6.63-10.47h-2.92v20.69H113.76zM135.31 249.67v-8.84c0-3.44-0.06-5.92-0.21-8.53l0.09-0.03c1.05 2.24 2.42 4.6 3.87 6.9l6.57 10.5h2.7V228.98h-2.52v8.65c0 3.22 0.07 5.74 0.31 8.51l-0.05 0.03c-0.98-2.11-2.18-4.3-3.72-6.72l-6.63-10.47h-2.92v20.69H135.31zM158.25 241.07l2.02-5.98c0.4-1.26 0.73-2.52 1.04-3.75h0.06c0.31 1.2 0.61 2.43 1.08 3.78l2.03 5.95H158.25zM165.03 243.16l2.21 6.51h2.86l-7.06-20.69h-3.23l-7.03 20.69h2.76l2.15-6.51H165.03zM178.42 249.66h2.7v-18.41h6.32v-2.27h-15.31v2.27h6.29V249.66zM191.11 249.66h2.67V228.98h-2.67V249.66zM209.69 244.84c1.82 0 3.23-1.41 3.23-3.22 0-1.78-1.45-3.22-3.23-3.22-1.78 0-3.25 1.44-3.22 3.25 0 1.81 1.44 3.19 3.19 3.19H209.69zM228.12 249.67v-8.84c0-3.44-0.06-5.92-0.21-8.53l0.09-0.03c1.05 2.24 2.42 4.6 3.87 6.9l6.56 10.5h2.7V228.98h-2.51v8.65c0 3.22 0.06 5.74 0.31 8.51l-0.06 0.03c-0.98-2.11-2.18-4.3-3.72-6.72l-6.63-10.47h-2.92v20.69H228.12zM248.79 239.45c0-4.54 2.21-8.62 6.63-8.62 4.45 0 6.6 4.29 6.6 8.4 0 4.7-2.39 8.6-6.63 8.6C251.18 247.83 248.79 243.87 248.79 239.45M264.83 239.11c0-6.13-3.65-10.47-9.29-10.47-5.53 0-9.61 4.3-9.61 10.87 0 6.25 3.84 10.49 9.3 10.49C260.51 250 264.83 246.23 264.83 239.11M272.33 231.13c0.43-0.12 1.35-0.25 2.64-0.25 2.83 0.03 4.76 1.2 4.76 3.87 0 2.37-1.81 3.93-4.66 3.93h-2.74V231.13zM269.67 249.67h2.67v-8.97h2.52c2.42 0.1 3.52 1.17 4.15 4.03 0.57 2.58 1.04 4.33 1.38 4.94h2.76c-0.43-0.8-0.92-2.79-1.59-5.68-0.49-2.15-1.44-3.62-3.03-4.17v-0.1c2.17-0.73 3.9-2.54 3.9-5.28 0-1.59-0.58-3-1.62-3.93-1.29-1.16-3.13-1.69-5.99-1.69-1.84 0-3.76 0.16-5.12 0.44V249.67zM291.47 249.66h2.69v-18.41h6.33v-2.27h-15.32v2.27h6.3V249.66zM304.16 228.98v20.68h2.67v-9.7h10v9.7h2.7V228.98h-2.7v8.66h-10v-8.66H304.16zM336.24 237.75h-8.04v-6.53h8.5v-2.24h-11.17v20.68h11.63v-2.24h-8.96v-7.46h8.04V237.75zM344.66 231.13c0.44-0.12 1.35-0.25 2.64-0.25 2.82 0.03 4.76 1.2 4.76 3.87 0 2.37-1.81 3.93-4.66 3.93h-2.74V231.13zM341.99 249.67h2.67v-8.97h2.52c2.42 0.1 3.53 1.17 4.15 4.03 0.57 2.58 1.04 4.33 1.38 4.94h2.76c-0.43-0.8-0.92-2.79-1.59-5.68-0.49-2.15-1.44-3.62-3.04-4.17v-0.1c2.18-0.73 3.9-2.54 3.9-5.28 0-1.59-0.58-3-1.62-3.93-1.3-1.16-3.13-1.69-5.99-1.69-1.84 0-3.77 0.16-5.12 0.44V249.67zM362.38 249.67v-8.84c0-3.44-0.05-5.92-0.21-8.53l0.09-0.03c1.04 2.24 2.42 4.6 3.87 6.9l6.56 10.5h2.7V228.98h-2.52v8.65c0 3.22 0.06 5.74 0.31 8.51l-0.06 0.03c-0.97-2.11-2.17-4.3-3.71-6.72l-6.63-10.47h-2.91v20.69H362.38zM389.3 249.66h2.67v-7.88l1.97-2.27 6.81 10.15h3.16l-8.07-11.91 7.49-8.77h-3.31l-6.32 7.76c-0.53 0.68-1.08 1.41-1.63 2.21h-0.1v-9.97H389.3V249.66zM418.01 237.75h-8.05v-6.53h8.51v-2.24h-11.18v20.68h11.64v-2.24h-8.97v-7.46h8.05V237.75zM426.28 249.67v-8.84c0-3.44-0.06-5.92-0.22-8.53l0.09-0.03c1.05 2.24 2.43 4.6 3.88 6.9l6.56 10.5h2.7V228.98h-2.52v8.65c0 3.22 0.07 5.74 0.31 8.51l-0.06 0.03c-0.98-2.11-2.18-4.3-3.72-6.72l-6.63-10.47h-2.92v20.69H426.28zM449.25 249.66h2.7v-18.41h6.33v-2.27h-15.32v2.27h6.3V249.66zM461.91 228.98v12.18c0 6.42 3.19 8.84 7.43 8.84 4.47 0 7.82-2.61 7.82-8.96V228.98h-2.7v12.25c0 4.57-1.96 6.6-5.03 6.6-2.76 0-4.82-1.97-4.82-6.6V228.98H461.91zM497.05 246.87c-1.07 0.52-2.73 0.86-4.36 0.86-5.03 0-7.94-3.25-7.94-8.32 0-5.44 3.22-8.54 8.07-8.54 1.72 0 3.16 0.37 4.17 0.87l0.65-2.18c-0.71-0.37-2.33-0.92-4.91-0.92-6.42 0-10.81 4.39-10.81 10.87 0 6.78 4.39 10.49 10.23 10.49 2.51 0 4.47-0.52 5.46-1.01L497.05 246.87zM502.31 249.66h2.68v-7.88l1.96-2.27 6.81 10.15h3.16l-8.08-11.91 7.49-8.77h-3.31l-6.32 7.76c-0.52 0.68-1.07 1.41-1.63 2.21h-0.08v-9.97h-2.68V249.66zM527.62 249.67v-8.81l6.94-11.87h-3.03l-2.99 5.71c-0.8 1.56-1.5 2.92-2.09 4.27h-0.06c-0.64-1.44-1.26-2.7-2.06-4.27l-2.91-5.71h-3.04l6.53 11.9v8.78H527.62zM548.15 244.84c1.81 0 3.23-1.41 3.23-3.22 0-1.78-1.45-3.22-3.23-3.22-1.77 0-3.25 1.44-3.22 3.25 0 1.81 1.45 3.19 3.19 3.19H548.15zM566.73 231.22c0.71-0.15 1.74-0.28 3.14-0.28 5.64 0 8.4 3.1 8.38 7.98 0 5.59-3.09 8.78-8.81 8.78-1.04 0-2.03-0.03-2.7-0.15V231.22zM564.06 249.6c1.35 0.15 2.95 0.25 4.85 0.25 4.02 0 7.21-1.04 9.15-2.97 1.94-1.9 2.98-4.67 2.98-8.04 0-3.35-1.07-5.74-2.92-7.43-1.81-1.68-4.54-2.58-8.37-2.58-2.12 0-4.06 0.19-5.69 0.44V249.6zM589.76 241.07l2.02-5.98c0.4-1.26 0.73-2.52 1.04-3.75h0.07c0.3 1.2 0.61 2.43 1.07 3.78l2.02 5.95H589.76zM596.54 243.16l2.21 6.51h2.85l-7.05-20.69h-3.23l-7.02 20.69h2.75l2.15-6.51H596.54zM613.31 249.67v-8.81l6.94-11.87h-3.04l-2.98 5.71c-0.8 1.56-1.51 2.92-2.09 4.27h-0.06c-0.64-1.44-1.26-2.7-2.06-4.27l-2.91-5.71h-3.04l6.54 11.9v8.78H613.31zM627.9 249.66h2.7v-18.41h6.32v-2.27h-15.31v2.27h6.3V249.66zM642.22 239.45c0-4.54 2.21-8.62 6.63-8.62 4.44 0 6.59 4.29 6.59 8.4 0 4.7-2.39 8.6-6.62 8.6C644.61 247.83 642.22 243.87 642.22 239.45M658.26 239.11c0-6.13-3.65-10.47-9.29-10.47-5.53 0-9.61 4.3-9.61 10.87 0 6.25 3.83 10.49 9.3 10.49C653.95 250 658.26 246.23 658.26 239.11M665.61 249.67v-8.84c0-3.44-0.06-5.92-0.21-8.53l0.09-0.03c1.04 2.24 2.43 4.6 3.86 6.9l6.58 10.5h2.69V228.98h-2.51v8.65c0 3.22 0.06 5.74 0.31 8.51l-0.06 0.03c-0.98-2.11-2.17-4.3-3.71-6.72l-6.63-10.47h-2.91v20.69H665.61z"/></svg>